<svg xmlns="http://www.w3.org/2000/svg" viewBox="0 0 148.2 148.2"><defs><style>.cls-1{fill:#900900;}.cls-2,.cls-3{fill:#fff;}.cls-3{stroke:#8bc53f;stroke-miterlimit:10;}</style></defs><g id="Layer_2" data-name="Layer 2"><g id="Layer_3" data-name="Layer 3"><circle class="cls-1" cx="74.1" cy="74.1" r="74.1"/></g><g id="Layer_1-2" data-name="Layer 1"><path class="cls-2" d="M17.1,105a4.35,4.35,0,0,0,.6.7,2.51,2.51,0,0,0,.7.4,1.1,1.1,0,0,0,.8,0l.9-.3,4.9-2.7.8,1.5-4.9,2.7a4.42,4.42,0,0,1-1.5.5,3.21,3.21,0,0,1-1.4-.1,3.29,3.29,0,0,1-1.3-.7,3.45,3.45,0,0,1-1-1.3,3,3,0,0,1-.5-1.6,3.81,3.81,0,0,1,.1-1.5,3.29,3.29,0,0,1,.7-1.3,4,4,0,0,1,1.2-1l4.9-2.7.8,1.5L18,101.8a5.55,5.55,0,0,0-.8.6,1.27,1.27,0,0,0-.4.7,2.2,2.2,0,0,0-.1.8C16.9,104.4,17,104.7,17.1,105Z"/><path class="cls-2" d="M31.5,111.7l.1.1v.3l-1,7.9.3-.3.3-.3,4-4,1.1,1.1-6.6,6.6-.6-.6c-.1-.1-.2-.2-.2-.3v-.4l1-7.9-.3.3-.3.3-4.1,4-1.1-1.1,6.6-6.6.6.6C31.4,111.6,31.5,111.6,31.5,111.7Z"/><path class="cls-2" d="M39.4,130.2l-1.5-.9,5-7.9,1.5.9Z"/><path class="cls-2" d="M50.8,125.8l1.3.5c.1,0,.2.1.3.2a.37.37,0,0,1,.1.3l.2,6.1v.6a1.7,1.7,0,0,1-.1.7,10.47,10.47,0,0,1,.8-1.1l3.9-4.7c.1-.1.2-.1.3-.2H58l1.3.5-6.6,7.6-1.5-.5Z"/><path class="cls-2" d="M72.3,130.5l-.1,1.4-4.1-.3-.2,2.6,3.3.3-.1,1.3-3.3-.3-.2,2.6,4.1.3-.1,1.4-5.9-.5.8-9.3Z"/><path class="cls-2" d="M82.7,135.6l.6,3.6-1.7.3-1.5-9.2,2.8-.5a9.74,9.74,0,0,1,1.6-.1,2.45,2.45,0,0,1,1.2.4,2.7,2.7,0,0,1,.8.7,4.18,4.18,0,0,1,.4,1,1.39,1.39,0,0,1,0,.9,1.14,1.14,0,0,1-.3.8,1.79,1.79,0,0,1-.5.7,2.18,2.18,0,0,1-.8.5c.2.1.5.2.6.4l2.9,3-1.5.3h-.4c-.1,0-.2-.1-.3-.2l-2.4-2.6c-.1-.1-.2-.2-.3-.2h-.4Zm-.3-1.3,1.1-.2c.3-.1.6-.1.8-.3a2.18,2.18,0,0,0,.5-.4l.3-.6v-.7a1.44,1.44,0,0,0-.6-1A2.29,2.29,0,0,0,83,131l-1.1.2Z"/><path class="cls-2" d="M99.4,126.4c0,.1,0,.2-.1.2s-.1.1-.2.1h-.3a.6.6,0,0,1-.4-.1h-.6a2.54,2.54,0,0,0-.7.2,2.19,2.19,0,0,0-.5.3c-.1.1-.2.3-.3.4a.75.75,0,0,0-.1.5.9.9,0,0,0,.1.5.78.78,0,0,0,.4.4c.2.1.4.1.6.2H98c.3,0,.5-.1.8-.1h.9a1.88,1.88,0,0,1,.8.2,1.61,1.61,0,0,1,.7.4,5.55,5.55,0,0,1,.6.8,2.66,2.66,0,0,1,.3,1.2,3.59,3.59,0,0,1-.2,1.1,2.29,2.29,0,0,1-.7,1,3.6,3.6,0,0,1-1.2.8,6.89,6.89,0,0,0-.8.3,2.77,2.77,0,0,1-.9.1,2,2,0,0,1-.8-.1,2.35,2.35,0,0,1-.8-.2l.1-1c0-.1.1-.1.1-.2s.1-.1.2-.1h.4c.2,0,.3.1.5.1h.7a3.09,3.09,0,0,0,.8-.2,1.46,1.46,0,0,0,.9-.8,1.39,1.39,0,0,0,0-1.1,1,1,0,0,0-.4-.5c-.2-.1-.4-.1-.6-.2h-.7c-.3,0-.5.1-.8.1h-.8a1.88,1.88,0,0,1-.8-.2,1.79,1.79,0,0,1-.7-.5,3.49,3.49,0,0,1-.6-.9,2.6,2.6,0,0,1,0-2,4.7,4.7,0,0,1,.6-.9,4.13,4.13,0,0,1,1.1-.7,8.33,8.33,0,0,1,1.5-.4,2.2,2.2,0,0,1,1.4.2Z"/><path class="cls-2" d="M112.6,127.3l-1.4,1-5.4-7.7,1.4-1Z"/><path class="cls-2" d="M118.1,109.6l1,1-1.9,2.1,5.8,5.4-1.2,1.3L116,114l-1.9,2.1-1-1Z"/><path class="cls-2" d="M129.3,102.8l3.2,1.7-.8,1.5-3.2-1.7-6.6.2.7-1.3.3-.3c.1,0,.2-.1.4-.1h4.2a.75.75,0,0,1,.5.1c-.1-.1-.2-.3-.3-.4a2.19,2.19,0,0,1-.3-.5l-1.9-3a.37.37,0,0,1-.1-.3.76.76,0,0,1,.1-.4l.7-1.3Z"/><line class="cls-3" x1="49.7" y1="87.2" x2="49.7" y2="87.2"/><path class="cls-2" d="M74.1,148.2A74.1,74.1,0,0,1,21.7,21.7,74.1,74.1,0,0,1,126.5,126.5,73.6,73.6,0,0,1,74.1,148.2ZM66.7,23.6a55.49,55.49,0,0,1,7.2-.5,50.55,50.55,0,0,1,50.5,49.2h20.1A70.51,70.51,0,0,0,74,3.6C35.7,3.6,4.3,34.3,3.4,72.3H23.3A50.36,50.36,0,0,1,54,27.1l-3.9,4.5a48.14,48.14,0,1,0,23.8-6.5c-1.1,0-2.2,0-3.3.1Zm54.8,67.7a50.83,50.83,0,0,1-95.2,0l-20.6.2a70.48,70.48,0,0,0,136.6,0ZM143,89.8A69,69,0,0,0,144.8,74v-.2H124.7a52.54,52.54,0,0,1-2.5,16Zm-117,0a52.54,52.54,0,0,1-2.5-16H3.5V74A69,69,0,0,0,5.3,89.8Z"/><path class="cls-2" d="M9.2,80.4V78.6c0-.3,0-.5-.2-.5a5.58,5.58,0,0,0-1.6.7c-.1,0-.1.1-.2.1l-.1-.1c0-.1.1-.1.1-.2s2.6-1.7,3.1-2.1a.52.52,0,0,1,.4-.2c.1,0,.1.1.1.3s-.1,1.5-.1,3.5v2.5a25.46,25.46,0,0,0,.1,3.1c0,.4.1.6.5.7.2,0,.8.1.9.1s.1,0,.1.1-.1.1-.2.1H7.5c-.1,0-.2,0-.2-.1a.1.1,0,0,1,.1-.1,4.91,4.91,0,0,0,1.1-.1c.4-.1.5-.3.5-.7a24.58,24.58,0,0,0,.1-3.1V80.4Z"/><path class="cls-2" d="M13.8,84.3a3.41,3.41,0,0,1,2.5-3c-1.1-.6-2-1.3-2-2.5s.9-2.5,3.2-2.5c1.7,0,2.8.8,2.8,2.1a2.84,2.84,0,0,1-2,2.5c1,.5,2.5,1.4,2.5,3s-1.3,3-3.6,3C15.2,86.9,13.8,85.9,13.8,84.3Zm3.5,2a1.87,1.87,0,0,0,1.9-2c0-1.4-1.1-2-2.3-2.7a3,3,0,0,0-1.6,2.6A2,2,0,0,0,17.3,86.3Zm.1-9.4a1.55,1.55,0,0,0-1.7,1.6c0,.8.6,1.4,1.8,2.1a2.17,2.17,0,0,0,1.3-2.1A1.38,1.38,0,0,0,17.4,76.9Z"/><path class="cls-2" d="M126.8,84c-.2,0-.3-.1-.3-.2a.52.52,0,0,1,.2-.4c.1-.1,5.6-6.8,5.7-6.9a.52.52,0,0,1,.4-.2.22.22,0,0,1,.2.2v6.4h1a2.18,2.18,0,0,0,.6-.1c.1,0,.1.1.1.2a3.71,3.71,0,0,1-.2.9c-.1.1-.1.2-.4.2h-1.2v1.6c0,.4.1.7.6.8.2,0,.5.1.6.1s.1,0,.1.1-.1.1-.2.1h-3.8c-.1,0-.2,0-.2-.1s0-.1.1-.1h.6c.5-.1.6-.4.6-.8a8.48,8.48,0,0,0,0-1.6h-4.5Zm4.7-5.2h0c-.4.4-3.1,3.6-3.5,4.2h3.5Z"/><path class="cls-2" d="M142.3,76.5c.3,0,.3,0,.3.1a.35.35,0,0,1-.1.2,33.4,33.4,0,0,0-3.4,8.7V86c0,.3-1.1.8-1.7.8-.1,0-.2,0-.2-.2a1.76,1.76,0,0,1,.1-.6,48.16,48.16,0,0,1,4-8.4h-3.5a3,3,0,0,0-1.3.2,1.52,1.52,0,0,0-.4.8.35.35,0,0,1-.1.2c-.1,0-.1-.1-.1-.2,0-.5.2-2.1.2-2.2a.35.35,0,0,1,.1-.2,9.26,9.26,0,0,0,1.8.1h4.3Z"/><path class="cls-2" d="M47,86.7c.1-12.5.2-25.9.2-26.1.2-16.3,8.3-23,10.4-24.7a.76.76,0,0,0,.3-.9l-.4-1.4a.87.87,0,0,0-1.4-.4,35.79,35.79,0,0,0-9.6,15.1h0a.83.83,0,0,0-.8-.3l-4.9.5v-.7L60.4,24.3a.91.91,0,0,1,1.1-.2L88.1,39.6c.3.2.3,1.1.3,1.4h0a.85.85,0,0,1-.7.8l-1.9.3a.85.85,0,0,0-.7.8l-.3,76a47.93,47.93,0,0,0,23-12.7l.3-53.6a.79.79,0,0,1,.8-.8h2.8a.79.79,0,0,0,.8-.8V48.9a.84.84,0,0,0-.4-.7L85.8,33.9,67,23.6l-.3-.2a58.35,58.35,0,0,1,7.3-.5,50.21,50.21,0,1,1-19.8,3.9L36.5,47.6a.76.76,0,0,0-.2.5v3.1c0,.5.4.9.8.8l4.7-.1c.5,0,.9.4.8.8l-.3,55.5a48.08,48.08,0,0,0,36.9,11.4l.3-63.9-.1-5.5c-.5-11-10.1-16.9-13.3-18.5a.79.79,0,0,0-1.2.6l-.3,1.8a.8.8,0,0,0,.5.9c2.5.9,11.5,5.1,11.6,17.7V76.4a.85.85,0,0,1-1,.8,38.08,38.08,0,0,0-13.2-.6c-8.5,1.2-6.3,3.5-6.7,3.5a2.22,2.22,0,0,1-1.2-1.9c.1-.4.6-1.2,2.2-1.8a32.18,32.18,0,0,1,3.1-1,9,9,0,0,0-4.5,1.1v.1a21.28,21.28,0,0,0,3.1-3.4c3-4.1,2.9-8.6,2.9-11.6,0-1.7.5-2.2.5-2.2.5-.9,3.8-1.9,6.9-1.9a25,25,0,0,1,5.3.6V54.3a3.05,3.05,0,0,0-1.8,0v.6l-1.3.5v.3l1.2.4v.3a28.62,28.62,0,0,0-3.4-.3,28.62,28.62,0,0,0-3.4.3v-.3l1.4-.4v-.3l-1.4-.5v-.6c-1.2-.2-3.8,1.4-4.8,3.1-1.7,2.9-.7,5.8-1.9,6.2-.6.2-3.6,1.1-3.6,1.1s-1.8.5-1.8-1c0-.7.3-1,1.1-1.3,1.1-.3,2.6-.9,2.6-.9.6-7,5.4-8.9,6.1-9.1a12.28,12.28,0,0,1,3.4-.6v-.6h.7v-.5h.7v-.4h.3v-.4h-.3v-.8h.6L68.2,48a2.07,2.07,0,0,1,.8-.2,1.38,1.38,0,0,1,.7.2l-.3,1.1H70v.8h-.4v.4H70v.4h.7v.5h.7v.6s1.2,0,2.3.1h0C71.9,39.8,63.6,38.1,63.6,38.1l-.2.7-4.8.7-.2-.6A14.14,14.14,0,0,0,54.8,42c-4,5.2-5.4,11.7-5.6,20.4V86.3h0l26.2-2.4a.82.82,0,0,1,.9.8v6.2a.79.79,0,0,1-.8.8l-29.7,2a.82.82,0,0,1-.9-.8V87.5a.79.79,0,0,1,.8-.8H47"/><path class="cls-2" d="M13.6,54.6l-.5,2-1.9-.1a3.49,3.49,0,0,0-.6.9,5.78,5.78,0,0,0-.5,1.4,2.21,2.21,0,0,0,.1,1.8,1.47,1.47,0,0,0,1,.9,1.37,1.37,0,0,0,1.3-.4,6.6,6.6,0,0,0,1.4-1.9,9.22,9.22,0,0,1,2.4-2.9,3.25,3.25,0,0,1,2.9-.5,3.44,3.44,0,0,1,2.4,2,6.07,6.07,0,0,1,.1,3.8,6.72,6.72,0,0,1-1.2,2.7,5.41,5.41,0,0,1-1.9,1.8l-2.8-.7.5-2.1,2,.2a2.09,2.09,0,0,0,.8-1,5.21,5.21,0,0,0,.6-1.5,2.76,2.76,0,0,0,0-1.8,1.67,1.67,0,0,0-1.1-.9,2.2,2.2,0,0,0-1.4.2,6.68,6.68,0,0,0-1.3,1.7,11.1,11.1,0,0,1-2.5,3.2,3,3,0,0,1-2.9.6,3.29,3.29,0,0,1-2.3-2A5.75,5.75,0,0,1,8,58.3a8.08,8.08,0,0,1,1.1-2.7,5.92,5.92,0,0,1,1.7-1.8Z"/><path class="cls-2" d="M21.3,55.2l.3-.9-8.7-9,1.3-2.5,12.5,1.6.6-.8,1.5.7-2.1,4.2-1.5-.7.3-.9-1.9-.3-2,4L23,52l.6-.8,1.5.7L23,56.1ZM19.9,49l1.4-2.8-5-.8v.1Z"/><path class="cls-2" d="M20.2,35.9l-1.3-1,3.5-4.5,1.3,1L23,32.7l7.7,6,1.1-1,1.3,1-3.5,4.5-1.3-1,.7-1.3-7.7-6Z"/><path class="cls-2" d="M36.2,17.8l1.1,1.3-.9,1.2,7.5,9L41.8,31,31.7,27.5h0l4.6,5.6,1.3-.7,1,1.3-4.3,3.6-1-1.3.9-1.1-6.3-7.5-1.3.7-1.1-1.3,1.1-.9,2.1-1.8,10.1,3.5h0L34.2,22l-1.3.7-1.1-1.3L35,18.7Z"/><path class="cls-2" d="M51.2,10.3l1.5,3.3-1.9.9-.7-1.3-2.3,1.1,4,8.7,1.4-.4.7,1.5-5.1,2.4L48.1,25l1.2-.9-4-8.7-2.3,1,.5,1.4-1.9.9-1.5-3.3Z"/><path class="cls-2" d="M66,19l1.4-.3-.5-9.8-1.5-.2-.1-1.6,10.8-.5.2,3.7-2.1.1L74,8.8,69.6,9l.2,3.8,4.8-.2.1,2.1-4.8.2.2,3.7,1.5.2.1,1.6-5.6.3Z"/><path class="cls-2" d="M87,7.9a6.44,6.44,0,0,1,3.4,1.7,3.43,3.43,0,0,1,.7,3.1,2.84,2.84,0,0,1-.9,1.7,5.08,5.08,0,0,1-1.8.9,3.61,3.61,0,0,1,1.5,1.5,3.66,3.66,0,0,1,.1,2.1l-.1.7a1.63,1.63,0,0,0,0,.7,1,1,0,0,0,.5.4l.3.1-.3,1.6L89,22.1A2.17,2.17,0,0,1,87.3,21a3,3,0,0,1-.2-1.9l.1-.8a2.61,2.61,0,0,0-.2-1.6,2.45,2.45,0,0,0-1.4-.9l-2.2-.4-.7,3.5,1.4.6-.3,1.6L78.3,20l.3-1.6h1.5l1.8-9.6-1.4-.5.3-1.6,1.4.3Zm-3.1,5.5,1.9.4a2.67,2.67,0,0,0,1.8-.2,1.74,1.74,0,0,0,.8-1.3,1.88,1.88,0,0,0-.3-1.5,2.75,2.75,0,0,0-1.5-.9l-1.9-.4Z"/><path class="cls-2" d="M92.2,21.3l.9.3,8.9-8.9,2.5,1.2-1.4,12.5.8.5-.7,1.5-4.2-2,.7-1.5.9.3.3-1.9-4-1.9-1.4,1.4.8.6-.7,1.5-4.2-2Zm6.3-1.5,2.8,1.4.7-5h-.1Z"/><path class="cls-2" d="M123.8,27.9l-1.1,1.2-1.3-.7-7.7,8.8-2.1-1.8,1.9-10.5h0l-4.8,5.5.9,1.2-1.1,1.2-4.3-3.7,1.1-1.2,1.3.7,6.4-7.4-.9-1.2,1.1-1.2,1.1,1,2.1,1.8-1.9,10.5h0l4.8-5.5-.9-1.2,1.1-1.2,3.2,2.7Z"/><path class="cls-2" d="M128.9,42.7,127.7,41l1.3-1.3a2.46,2.46,0,0,0-.1-1.2,3.79,3.79,0,0,0-.6-1.3,3.14,3.14,0,0,0-2.6-1.5,5.59,5.59,0,0,0-3.3,1.2l-.4.3a5.53,5.53,0,0,0-2.2,2.7,3.31,3.31,0,0,0,.5,3,11,11,0,0,0,1,1.1,3.45,3.45,0,0,0,1.1.5l1.6-.8,1.2,1.7L123,46.9a8.09,8.09,0,0,1-2.5-.8,8,8,0,0,1-2.1-2,5.59,5.59,0,0,1-1-4.8,6.94,6.94,0,0,1,3-4.2l.4-.3a7.26,7.26,0,0,1,5-1.4A6,6,0,0,1,130,36a8,8,0,0,1,1.2,2.7,5.7,5.7,0,0,1,0,2.6Z"/><path class="cls-2" d="M133.1,44.6l1.5-.7,2.3,5.1-1.5.7-.9-1.2-8.9,4,.3,1.4-1.5.7-2.3-5.1,1.5-.7.9,1.2,8.9-4Z"/><path class="cls-2" d="M136.8,63.9l-.5-2,1.7-.8a3.42,3.42,0,0,0,.1-1.1,5.9,5.9,0,0,0-.2-1.4A3.07,3.07,0,0,0,137,57a1.52,1.52,0,0,0-1.3-.3,1.18,1.18,0,0,0-.9.9,9.73,9.73,0,0,0-.4,2.4,7.53,7.53,0,0,1-.8,3.7,3.79,3.79,0,0,1-2.3,1.8,3,3,0,0,1-3-.7,5.92,5.92,0,0,1-1.9-3.3,7.62,7.62,0,0,1-.2-3,5.81,5.81,0,0,1,.9-2.5l2.8-.7.5,2.1-1.8.8a3.5,3.5,0,0,0-.3,1.2,4.68,4.68,0,0,0,.2,1.6,2.75,2.75,0,0,0,.9,1.5,1.52,1.52,0,0,0,1.3.3,1.55,1.55,0,0,0,1.1-.8,4.81,4.81,0,0,0,.4-2.1,13.1,13.1,0,0,1,.7-4,2.88,2.88,0,0,1,2.3-1.8,3.29,3.29,0,0,1,3,.7,6,6,0,0,1,1.9,3.2,7.25,7.25,0,0,1,.2,2.9,6.11,6.11,0,0,1-.7,2.4Z"/></g></g></svg>